<svg id="Layer_1" enable-background="new 0 0 512 512" height="512" viewBox="0 0 512 512" width="512" xmlns="http://www.w3.org/2000/svg"><g><path d="m400.378 124.806h111.622l-126.612-124.806v109.806c0 8.271 6.724 15 14.99 15z"/><path d="m355.388 109.806v-109.806h-280.557c-8.284 0-15 6.716-15 15v101.007h167.552c45.421 0 82.373 36.952 82.373 82.373v174.09c0 45.42-36.952 82.373-82.373 82.373h-167.552v42.157c0 8.284 6.716 15 15 15h422.169c8.284 0 15-6.716 15-15v-342.194h-111.622c-24.808 0-44.99-20.187-44.99-45z"/><path d="m280.757 372.47v-174.09c0-29.477-23.896-53.373-53.373-53.373h-174.011c-29.477 0-53.373 23.896-53.373 53.373v174.09c0 29.477 23.896 53.373 53.373 53.373h174.011c29.477 0 53.373-23.896 53.373-53.373zm-159.772-41.419c5.858 5.858 5.858 15.355 0 21.213-5.857 5.858-15.355 5.858-21.213 0l-56.233-56.233c-5.858-5.858-5.858-15.355 0-21.213l56.233-56.233c5.857-5.858 15.355-5.858 21.213 0s5.858 15.355 0 21.213l-45.626 45.626zm49.393 25.607c-3.839 0-7.678-1.464-10.606-4.393-5.858-5.858-5.858-15.355 0-21.213l45.626-45.626-45.626-45.626c-5.858-5.858-5.858-15.355 0-21.213 5.857-5.858 15.355-5.858 21.213 0l56.233 56.233c5.858 5.858 5.858 15.355 0 21.213l-56.233 56.233c-2.929 2.927-6.768 4.392-10.607 4.392z"/></g></svg>